<?xml version="1.0" encoding="UTF-8"?>
<svg width="1367px" height="940px" viewBox="0 0 1367 940" xmlns="http://www.w3.org/2000/svg" xmlns:xlink="http://www.w3.org/1999/xlink" version="1.1">
 <!-- Generated by Pixelmator Pro 2.1.5 -->
 <path id="Path" d="M717 356 L869 356 869 508 717 508 Z" fill="#ffb442" fill-opacity="1" stroke="none"/>
 <path id="Path-1" d="M535 575 L819 575 819 731 535 731 Z" fill="#ffb442" fill-opacity="1" stroke="none"/>
 <path id="Path-2" d="M383 324 L511 324 511 510 383 510 Z" fill="#ffb442" fill-opacity="1" stroke="none"/>
 <path id="Path-3" d="M830.973 306.277 C825.288 327.292 805.816 340.308 805.816 340.308 805.816 340.308 795.56 319.25 801.245 298.235 806.93 277.22 826.403 264.204 826.403 264.204 826.403 264.204 836.658 285.262 830.973 306.277 Z" fill="#ffb442" fill-opacity="1" stroke="none"/>
 <path id="Path-4" d="M779.255 306.277 C784.94 327.292 804.413 340.308 804.413 340.308 804.413 340.308 814.668 319.25 808.983 298.235 803.298 277.22 783.825 264.204 783.825 264.204 783.825 264.204 773.57 285.262 779.255 306.277 Z" fill="#ffb442" fill-opacity="1" stroke="none"/>
 <path id="Path-5" d="M787.609 301.761 C803.209 316.946 805.114 340.291 805.114 340.291 805.114 340.291 781.727 339.014 766.127 323.828 750.527 308.642 748.622 285.298 748.622 285.298 748.622 285.298 772.009 286.575 787.609 301.761 Z" fill="#3f3d56" fill-opacity="1" stroke="none"/>
 <path id="Path-6" d="M822.619 301.761 C807.02 316.946 805.114 340.291 805.114 340.291 805.114 340.291 828.501 339.014 844.101 323.828 859.701 308.642 861.606 285.298 861.606 285.298 861.606 285.298 838.219 286.575 822.619 301.761 Z" fill="#3f3d56" fill-opacity="1" stroke="none"/>
 <path id="Path-7" d="M341.571 252.661 C363.337 253.128 380.652 268.901 380.652 268.901 380.652 268.901 362.677 283.917 340.911 283.45 319.145 282.983 301.831 267.21 301.831 267.21 301.831 267.21 319.806 252.194 341.571 252.661 Z" fill="#ffb442" fill-opacity="1" stroke="none"/>
 <path id="Path-8" d="M232.144 178.363 C251.808 187.705 274.357 181.37 274.357 181.37 274.357 181.37 265.024 159.888 245.359 150.546 225.695 141.204 203.146 147.539 203.146 147.539 203.146 147.539 212.48 169.02 232.144 178.363 Z" fill="#ffb442" fill-opacity="1" stroke="none"/>
 <path id="Path-9" d="M234.143 169.079 C255.823 167.098 274.8 180.826 274.8 180.826 274.8 180.826 258.626 197.766 236.946 199.748 215.265 201.729 196.288 188.001 196.288 188.001 196.288 188.001 212.463 171.06 234.143 169.079 Z" fill="#3f3d56" fill-opacity="1" stroke="none"/>
 <path id="Path-10" d="M313.617 172.833 C311.539 194.504 325.182 213.542 325.182 213.542 325.182 213.542 342.195 197.444 344.273 175.772 346.351 154.101 332.707 135.063 332.707 135.063 332.707 135.063 315.695 151.161 313.617 172.833 Z" fill="#3f3d56" fill-opacity="1" stroke="none"/>
 <path id="Path-11" d="M415.721 305.743 C404.349 324.307 408.262 347.4 408.262 347.4 408.262 347.4 430.611 340.393 441.983 321.828 453.354 303.264 449.442 280.171 449.442 280.171 449.442 280.171 427.093 287.178 415.721 305.743 Z" fill="#3f3d56" fill-opacity="1" stroke="none"/>
 <path id="Path-12" d="M382.731 507.591 L384.388 506.471 C378.547 497.994 375.357 487.972 375.225 477.679 375.271 462.621 382.667 448.694 389.82 435.225 391.148 432.725 392.471 430.233 393.744 427.743 399.087 417.588 403.345 406.898 406.448 395.85 417.543 354.62 406.619 305.976 377.229 265.728 353.913 233.799 319.157 205.879 270.975 180.372 L270.039 182.14 C317.947 207.501 352.481 235.229 375.614 266.908 404.651 306.671 415.455 354.68 404.516 395.33 401.45 406.243 397.243 416.802 391.964 426.832 390.695 429.313 389.376 431.796 388.054 434.287 380.787 447.971 373.273 462.12 373.225 477.673 373.357 488.367 376.666 498.781 382.731 507.591 Z" fill="#3f3d56" fill-opacity="1" stroke="none"/>
 <path id="Path-13" d="M195 164 C195 174.494 186.494 183 176 183 165.507 183 157 174.494 157 164 157 153.507 165.507 145 176 145 186.494 145 195 153.507 195 164 Z" fill="#3f3d56" fill-opacity="1" stroke="none"/>
 <path id="Path-14" d="M529 493 L399 493 399 305 529 305 Z M401 491 L527 491 527 307 401 307 Z" fill="#3f3d56" fill-opacity="1" stroke="none"/>
 <path id="Path-15" d="M415 355 L497 355 497 357 415 357 Z" fill="#ffffff" fill-opacity="1" stroke="none"/>
 <path id="Path-16" d="M414.623 376.94 L496.623 376.94 496.623 378.94 414.623 378.94 Z" fill="#ffffff" fill-opacity="1" stroke="none"/>
 <path id="Path-17" d="M414.246 398.88 L496.246 398.88 496.246 400.88 414.246 400.88 Z" fill="#ffffff" fill-opacity="1" stroke="none"/>
 <path id="Path-18" d="M413.869 420.82 L495.869 420.82 495.869 422.82 413.869 422.82 Z" fill="#ffffff" fill-opacity="1" stroke="none"/>
 <path id="Path-19" d="M413.492 442.76 L495.492 442.76 495.492 444.76 413.492 444.76 Z" fill="#ffffff" fill-opacity="1" stroke="none"/>
 <path id="Path-20" d="M413.115 464.699 L495.115 464.699 495.115 466.699 413.115 466.699 Z" fill="#ffffff" fill-opacity="1" stroke="none"/>
 <path id="Path-21" d="M582 595 L796 595 796 597 582 597 Z" fill="#ffffff" fill-opacity="1" stroke="none"/>
 <path id="Path-22" d="M581.623 617.94 L795.623 617.94 795.623 619.94 581.623 619.94 Z" fill="#ffffff" fill-opacity="1" stroke="none"/>
 <path id="Path-23" d="M581.246 640.88 L795.246 640.88 795.246 642.88 581.246 642.88 Z" fill="#ffffff" fill-opacity="1" stroke="none"/>
 <path id="Path-24" d="M580.869 663.82 L794.869 663.82 794.869 665.82 580.869 665.82 Z" fill="#ffffff" fill-opacity="1" stroke="none"/>
 <path id="Path-25" d="M580.492 686.76 L794.492 686.76 794.492 688.76 580.492 688.76 Z" fill="#ffffff" fill-opacity="1" stroke="none"/>
 <path id="Path-26" d="M752 378 L852 378 852 380 752 380 Z" fill="#ffffff" fill-opacity="1" stroke="none"/>
 <path id="Path-27" d="M751.623 399.94 L851.623 399.94 851.623 401.94 751.623 401.94 Z" fill="#ffffff" fill-opacity="1" stroke="none"/>
 <path id="Path-28" d="M751.246 421.88 L851.246 421.88 851.246 423.88 751.246 423.88 Z" fill="#ffffff" fill-opacity="1" stroke="none"/>
 <path id="Path-29" d="M750.869 443.82 L850.869 443.82 850.869 445.82 750.869 445.82 Z" fill="#ffffff" fill-opacity="1" stroke="none"/>
 <path id="Path-30" d="M750.492 465.76 L850.492 465.76 850.492 467.76 750.492 467.76 Z" fill="#ffffff" fill-opacity="1" stroke="none"/>
 <path id="Path-31" d="M842 714 L556 714 556 556 842 556 Z M558 712 L840 712 840 558 558 558 Z" fill="#3f3d56" fill-opacity="1" stroke="none"/>
 <path id="Path-32" d="M698.87 558.251 L698.314 557.728 527.314 396.632 528.686 395.176 699.13 555.749 804.911 491.146 805.954 492.854 Z" fill="#3f3d56" fill-opacity="1" stroke="none"/>
 <path id="Path-33" d="M888 493 L734 493 734 339 888 339 Z M736 491 L886 491 886 341 736 341 Z" fill="#3f3d56" fill-opacity="1" stroke="none"/>
 <path id="Path-34" d="M1111.702 155.536 C1093.047 124.017 1056.142 122.548 1056.142 122.548 1056.142 122.548 1020.179 117.949 997.109 165.954 975.606 210.698 945.93 253.9 992.332 264.375 L1000.713 238.287 1005.904 266.317 C1012.51 266.792 1019.138 266.905 1025.757 266.656 1075.45 265.052 1122.775 267.125 1121.251 249.294 1119.225 225.589 1129.651 185.865 1111.702 155.536 Z" fill="#2f2e41" fill-opacity="1" stroke="none"/>
 <path id="Path-35" d="M1129.864 523.805 C1129.864 523.805 1106.458 565.155 1124.402 568.276 1142.347 571.397 1154.05 532.387 1154.05 532.387 Z" fill="#a0616a" fill-opacity="1" stroke="none"/>
 <path id="Path-36" d="M1175.896 329.535 C1172.775 362.304 1168.094 535.508 1154.83 540.969 1141.567 546.43 1119.721 546.43 1119.721 546.43 L1119.721 393.512 C1119.721 393.512 1125.183 286.624 1144.688 274.141 L1155.969 274.141 C1158.627 274.14 1161.13 275.395 1162.718 277.527 1162.819 277.66 1162.913 277.8 1163.007 277.941 1168.078 285.696 1178.26 304.702 1175.896 329.535 Z" fill="#d0cde1" fill-opacity="1" stroke="none"/>
 <path id="Path-37" d="M973.434 576.468 L976.555 661.51 C976.555 661.51 966.412 744.991 974.994 770.737 L999.961 774.638 C999.961 774.638 1028.048 691.157 1024.147 661.51 L1040.531 576.468 999.181 524.195 Z" fill="#a0616a" fill-opacity="1" stroke="none"/>
 <path id="Path-38" d="M1068.618 546.82 L1072.519 588.171 1088.903 681.015 C1088.903 681.015 1098.266 737.969 1117.771 774.638 L1130.254 814.428 1151.319 806.626 C1151.319 806.626 1157.561 724.706 1132.594 660.729 L1128.693 581.929 1102.167 537.458 Z" fill="#a0616a" fill-opacity="1" stroke="none"/>
 <path id="Path-39" d="M1113.09 413.407 L1006.202 393.121 C1006.202 393.121 974.995 442.274 964.852 579.589 L989.038 585.83 996.06 549.161 1000.741 588.171 1083.442 595.973 1091.244 555.403 1096.705 598.314 1138.836 591.292 C1138.836 591.292 1134.935 444.614 1113.09 413.407 Z" fill="#2f2e41" fill-opacity="1" stroke="none"/>
 <path id="Path-40" d="M1005.812 768.007 L969.143 768.007 965.242 791.413 C965.242 791.413 918.43 860.07 953.539 856.169 988.648 852.268 989.428 833.543 989.428 833.543 989.428 833.543 1004.252 819.5 1005.812 812.478 1007.373 805.456 1001.911 788.292 1001.911 788.292 Z" fill="#2f2e41" fill-opacity="1" stroke="none"/>
 <path id="Path-41" d="M1154.05 792.193 L1119.721 799.215 1119.721 849.927 C1119.721 849.927 1109.579 899.86 1138.446 896.739 1167.313 893.619 1162.632 851.488 1162.632 851.488 Z" fill="#2f2e41" fill-opacity="1" stroke="none"/>
 <path id="Path-42" d="M1089.293 196.902 C1089.293 219.739 1070.78 238.252 1047.943 238.252 1025.106 238.252 1006.592 219.739 1006.592 196.902 1006.592 174.064 1025.106 155.551 1047.943 155.551 1070.78 155.551 1089.293 174.064 1089.293 196.902 Z" fill="#a0616a" fill-opacity="1" stroke="none"/>
 <path id="Path-43" d="M1040.141 231.23 C1040.141 231.23 1052.624 258.537 1049.503 263.218 1046.383 267.9 1111.919 260.098 1111.919 260.098 1111.919 260.098 1082.272 215.626 1082.272 206.264 Z" fill="#a0616a" fill-opacity="1" stroke="none"/>
 <path id="Path-44" d="M941.056 485.575 C941.056 485.575 917.65 526.925 935.594 530.046 953.539 533.167 965.242 494.157 965.242 494.157 Z" fill="#a0616a" fill-opacity="1" stroke="none"/>
 <path id="Path-45" d="M1132.204 357.622 C1132.204 357.622 1139.226 394.292 1130.644 414.577 1128.085 420.623 1124.207 422.301 1119.721 421.755 L1119.721 393.511 C1119.721 393.511 1125.183 286.624 1144.688 274.141 L1155.969 274.141 C1158.627 274.14 1161.13 275.395 1162.718 277.527 Z" fill="#000000" fill-opacity="1" stroke="none"/>
 <path id="Path-46" d="M1106.063 243.527 C1095.855 245.714 1059.864 253.154 1046.073 252.394 1045.224 252.344 1044.377 252.503 1043.604 252.858 L1034.68 256.977 993.903 276.292 C991.738 277.318 990.563 279.697 991.065 282.039 L1005.739 350.518 C1006.233 352.807 1005.121 355.141 1003.033 356.2 991.109 362.222 955.92 383.003 1003.472 398.193 1059.646 416.137 1072.129 412.236 1083.832 409.115 1095.535 405.995 1118.941 434.862 1127.523 414.577 1135.123 396.614 1130.487 365.804 1129.326 358.985 1129.172 358.078 1129.264 357.147 1129.592 356.288 L1158.642 280.032 C1159.58 277.568 1158.512 274.794 1156.164 273.596 L1122.789 256.568 C1122.307 256.322 1121.867 256.002 1121.485 255.62 L1110.791 244.926 C1109.554 243.688 1107.774 243.161 1106.063 243.527 Z" fill="#d0cde1" fill-opacity="1" stroke="none"/>
 <path id="Path-47" d="M1000.351 277.262 L994.12 277.262 C991.851 277.262 989.901 278.875 989.477 281.105 L969.143 388.05 948.858 455.147 C948.858 455.147 899.705 479.333 936.375 492.597 973.044 505.86 991.769 501.179 987.868 486.355 983.967 471.531 1021.416 374.787 1021.416 374.787 Z" fill="#d0cde1" fill-opacity="1" stroke="none"/>
 <path id="Path-48" d="M1087.343 122.707 C1087.343 137.445 1075.396 149.392 1060.658 149.392 1045.921 149.392 1033.974 137.445 1033.974 122.707 1033.974 107.97 1045.921 96.022 1060.658 96.022 1075.396 96.022 1087.343 107.97 1087.343 122.707 Z" fill="#2f2e41" fill-opacity="1" stroke="none"/>
 <path id="Path-49" d="M1031.165 115.685 C1031.165 102.038 1041.464 90.589 1055.038 89.15 1054.108 89.051 1053.17 89.001 1052.232 89 1042.694 88.994 1033.878 94.078 1029.108 102.337 1024.337 110.595 1024.336 120.772 1029.107 129.031 1033.877 137.29 1042.692 142.375 1052.23 142.37 1053.17 142.369 1054.108 142.319 1055.041 142.22 1041.467 140.783 1031.166 129.334 1031.165 115.685 Z" fill="#2f2e41" fill-opacity="1" stroke="none"/>
 <path id="Path-50" d="M1103.454 152.498 L1066.993 133.399 1016.642 141.212 1006.225 187.223 1032.157 186.225 1039.401 169.322 1039.401 185.947 1051.367 185.486 1058.312 158.575 1062.653 187.223 1105.191 186.355 Z" fill="#2f2e41" fill-opacity="1" stroke="none"/>
 <path id="Path-51" d="M1094.365 190.27 C1094.365 195.548 1091.92 199.827 1088.903 199.827 1085.887 199.827 1083.442 195.548 1083.442 190.27 1083.442 184.991 1085.887 180.712 1088.903 180.712 1091.92 180.712 1094.365 184.991 1094.365 190.27 Z" fill="#a0616a" fill-opacity="1" stroke="none"/>
</svg>
